# Blender 4.5.3 LTS
# www.blender.org
mtllib spaceship.mtl
o Cube
v 0.039847 1.225625 -4.383854
v 0.039847 0.634052 -4.383854
v 1.091553 2.789768 3.634702
v 1.347771 -0.673873 3.634702
v -0.551726 1.225625 -4.383854
v -0.551726 0.634052 -4.383854
v -1.603433 2.789768 3.634702
v -1.859651 -0.673873 3.634702
v 1.091553 3.662020 3.634702
v -1.603433 3.662020 3.634702
v 1.347771 3.918238 -4.383854
v -1.859651 3.918238 -4.383854
v -1.859651 -0.673873 5.401299
v -1.859651 2.533550 5.401299
v 1.347771 2.533550 5.401299
v 1.347771 -0.673873 5.401299
v -0.588335 0.597444 6.327210
v -0.588335 1.262233 6.327210
v 0.076455 1.262233 6.327210
v 0.076455 0.597444 6.327210
v 2.191597 2.203594 -3.558964
v 2.191597 -0.343917 -3.558964
v 2.191597 2.203594 2.809812
v 2.191597 -0.343917 2.809812
v 2.191597 2.533550 -4.383854
v 2.191597 -0.673873 -4.383854
v 2.191597 2.533550 3.634702
v 2.191597 -0.673873 3.634702
v 7.753512 1.349817 -1.424522
v 7.753512 0.509860 -1.424522
v 7.753512 1.349817 0.675370
v 7.753512 0.509860 0.675370
v -2.826988 -0.360026 -3.599238
v -2.826988 -0.360026 2.850086
v -2.826988 2.219704 2.850086
v -2.826988 2.219704 -3.599238
v -2.826988 -0.673873 -4.383854
v -2.826988 -0.673873 3.634702
v -2.826988 2.533550 3.634702
v -2.826988 2.533550 -4.383854
v -7.854304 0.585056 -1.236532
v -7.854304 0.585056 0.487380
v -7.854304 1.274621 0.487380
v -7.854304 1.274621 -1.236532
v -0.020327 0.694226 -5.497407
v -0.491552 0.694226 -5.497407
v -0.020327 1.165451 -5.497407
v -0.491552 1.165451 -5.497407
v 0.039847 0.634052 -5.497407
v -0.551726 0.634052 -5.497407
v 0.039847 1.225625 -5.497407
v -0.551726 1.225625 -5.497407
v -0.020327 0.694226 -3.682187
v -0.491552 0.694226 -3.682187
v -0.020327 1.165451 -3.682187
v -0.491552 1.165451 -3.682187
v -0.019009 5.607474 0.217752
v -0.492871 5.607474 0.217752
v -0.019009 5.607474 -0.966904
v -0.492871 5.607474 -0.966904
v -0.019009 7.145823 0.217752
v -0.492871 7.145823 0.217752
v -0.019009 7.145823 -0.966904
v -0.492871 7.145823 -0.966904
v -0.588335 0.597444 6.327210
v -0.588335 1.262233 6.327210
v 0.076455 1.262233 6.327210
v 0.076455 0.597444 6.327210
v -1.515539 0.156889 6.289913
v -0.997094 2.176267 6.289913
v 0.485214 2.176267 6.289913
v 1.014530 0.130644 6.289913
v -1.254521 0.417906 6.289913
v -0.762417 1.941590 6.289913
v 0.250537 1.941590 6.289913
v 0.731771 0.413403 6.289913
v -0.588335 0.597444 7.215825
v -0.588335 1.262233 7.215825
v 0.076455 1.262233 7.215825
v 0.076455 0.597444 7.215825
v -0.588335 0.597444 7.215825
v -0.588335 1.262233 7.215825
v 0.076455 1.262233 7.215825
v 0.076455 0.597444 7.215825
v 1.014530 1.729033 6.289913
v -1.515539 1.702789 6.289913
v 0.731771 1.446274 6.289913
v -1.254521 1.441771 6.289913
v 1.347771 2.533550 6.289913
v 0.749526 -0.426072 6.289913
v 0.398529 1.584307 6.289913
v 0.295886 0.027569 6.289913
v -1.261406 -0.426072 6.289913
v -1.859651 2.533550 6.289913
v -0.807766 0.027569 6.289913
v -0.910409 1.584307 6.289913
v -1.859651 -0.673873 6.289913
v 1.347771 -0.673873 6.289913
v -0.910409 0.275370 6.289913
v 0.398529 0.275370 6.289913
v 1.347771 2.533550 3.634702
v -1.859651 2.533550 3.634702
v 1.347771 3.918238 3.634702
v -1.859651 3.918238 3.634702
v 1.300162 2.581160 3.634702
v -1.812042 2.581160 3.634702
v 1.300162 3.870629 3.634702
v -1.812042 3.870629 3.634702
v 1.091553 2.789768 2.291188
v -1.603433 2.789768 2.291188
v 1.091553 3.662020 2.291188
v -1.603433 3.662020 2.291188
vn -0.8969 -0.4357 -0.0752
vn -1.0000 -0.0000 -0.0000
vn 0.4975 -0.8654 -0.0600
vn -0.0000 -0.9870 -0.1610
vn -0.0000 -0.0000 -1.0000
vn 1.0000 -0.0000 -0.0000
vn -0.0000 -1.0000 -0.0000
vn -0.0000 1.0000 -0.0000
vn -0.7774 0.6290 -0.0000
vn 0.1517 -0.9884 -0.0000
vn -0.5186 0.8532 -0.0546
vn -0.0000 -0.0000 1.0000
vn 0.3583 -0.0000 0.9336
vn 0.1517 0.9884 -0.0000
vn 0.3583 -0.0000 -0.9336
vn -0.1848 0.9828 -0.0000
vn -0.4253 -0.0000 0.9050
vn -0.4253 -0.0000 -0.9050
vn -0.1848 -0.9828 -0.0000
vn -0.0000 0.8964 0.4432
vn -0.0000 0.8964 -0.4432
vn 0.7774 0.6290 -0.0000
vn -0.0000 -0.9445 0.3285
vn 0.9445 -0.0000 0.3285
vn -0.0000 0.9445 0.3285
vn -0.9445 -0.0000 0.3285
vn 0.8969 -0.4357 -0.0752
vn -0.5186 -0.8532 -0.0546
vn 0.4975 0.8654 -0.0600
vt 0.625000 0.000000
vt 0.625000 0.250000
vt 0.375000 0.000000
vt 0.125000 0.750000
vt 0.125000 0.500000
vt 0.375000 0.750000
vt 0.375000 0.500000
vt 0.625000 0.500000
vt 0.551012 0.823988
vt 0.551012 0.926012
vt 0.875000 0.750000
vt 0.625000 0.750000
vt 0.855029 0.750000
vt 0.855029 0.750000
vt 0.448988 0.823988
vt 0.448988 0.926012
vt 0.400718 0.525718
vt 0.400718 0.724282
vt 0.599282 0.525718
vt 0.599282 0.724282
vt 0.600537 0.024463
vt 0.600537 0.225537
vt 0.375000 0.250000
vt 0.399463 0.225537
vt 0.399463 0.024463
vt 0.599570 0.474570
vt 0.599570 0.275430
vt 0.400430 0.275430
vt 0.400430 0.474570
vt 0.875000 0.500000
vt 0.539902 0.952834
vt 0.439753 0.973178
vt 0.460098 0.952834
vt 0.459747 0.798014
vt 0.562293 0.775974
vt 0.540253 0.798014
vt 0.578860 0.835523
vt 0.597152 0.932769
vt 0.578860 0.914477
vt 0.429673 0.918012
vt 0.394315 0.796630
vt 0.429673 0.831988
vt 0.597152 0.817231
vt 0.625000 1.000000
vt 0.437707 0.775974
vt 0.560247 0.973178
vt 0.375000 1.000000
vt 0.394315 0.953370
vt 0.871289 0.750000
vt 0.628711 0.750000
vt 0.628711 0.750000
vt 0.871289 0.750000
vt 0.644971 0.750000
vt 0.644971 0.750000
s 0
usemtl Material
f 102/1/1 12/2/1 5/2/1
f 8/3/2 14/1/2 102/1/2
f 8/4/3 37/5/3 6/5/3
f 6/5/4 4/6/4 8/4/4
f 2/7/5 25/8/5 26/7/5
f 2/7/6 51/8/6 1/8/6
f 19/9/7 78/10/7 18/10/7
f 4/6/7 13/4/7 8/4/7
f 102/11/8 15/12/8 101/12/8
f 101/12/6 16/6/6 4/6/6
f 104/1/9 60/2/9 12/2/9
f 101/12/6 11/8/6 103/12/6
f 5/2/5 11/8/5 1/8/5
f 7/13/6 112/14/6 10/14/6
f 14/11/8 89/12/8 15/12/8
f 67/9/6 84/15/6 68/15/6
f 20/15/2 79/9/2 19/9/2
f 15/12/6 98/6/6 16/6/6
f 17/16/8 68/15/8 65/16/8
f 65/16/2 82/10/2 66/10/2
f 68/15/7 81/16/7 65/16/7
f 18/10/6 77/16/6 17/16/6
f 22/17/10 32/18/10 24/18/10
f 4/6/7 26/7/7 28/6/7
f 101/12/11 25/8/11 1/8/11
f 4/6/12 27/12/12 101/12/12
f 22/17/6 25/8/6 21/19/6
f 23/20/6 28/6/6 24/18/6
f 21/19/6 27/12/6 23/20/6
f 24/18/6 26/7/6 22/17/6
f 29/19/6 32/18/6 30/17/6
f 24/18/13 31/20/13 23/20/13
f 23/20/14 29/19/14 21/19/14
f 21/19/15 30/17/15 22/17/15
f 35/21/16 44/22/16 43/21/16
f 102/1/8 40/2/8 39/1/8
f 6/23/5 40/2/5 5/2/5
f 102/1/12 38/3/12 8/3/12
f 33/24/2 38/3/2 34/25/2
f 34/25/2 39/1/2 35/21/2
f 36/22/2 37/23/2 33/24/2
f 35/21/2 40/2/2 36/22/2
f 43/21/2 41/24/2 42/25/2
f 35/21/17 42/25/17 34/25/17
f 33/24/18 44/22/18 36/22/18
f 33/24/19 42/25/19 41/24/19
f 47/26/7 56/27/7 48/27/7
f 5/2/2 50/23/2 6/23/2
f 6/5/7 49/7/7 2/7/7
f 1/8/8 52/2/8 5/2/8
f 46/28/5 49/7/5 50/23/5
f 45/29/5 51/8/5 49/7/5
f 48/27/5 50/23/5 52/2/5
f 47/26/5 52/2/5 51/8/5
f 56/27/5 53/29/5 54/28/5
f 45/29/2 55/26/2 47/26/2
f 48/27/6 54/28/6 46/28/6
f 46/28/8 53/29/8 45/29/8
f 58/1/2 64/2/2 60/2/2
f 103/12/20 58/11/20 104/11/20
f 12/2/21 59/8/21 11/8/21
f 11/8/22 57/12/22 103/12/22
f 64/30/8 61/12/8 63/8/8
f 57/12/12 62/11/12 58/11/12
f 60/2/5 63/8/5 59/8/5
f 59/8/6 61/12/6 57/12/6
f 13/3/2 94/1/2 14/1/2
f 20/15/8 67/9/8 68/15/8
f 19/9/8 66/10/8 67/9/8
f 18/10/8 65/16/8 66/10/8
f 100/15/23 77/16/23 99/16/23
f 88/31/12 69/32/12 73/33/12
f 76/34/12 85/35/12 87/36/12
f 75/37/12 70/38/12 74/39/12
f 95/40/12 90/41/12 92/42/12
f 91/9/24 80/15/24 100/15/24
f 96/10/25 79/9/25 91/9/25
f 99/16/26 78/10/26 96/10/26
f 83/9/12 81/16/12 84/15/12
f 66/10/8 83/9/8 67/9/8
f 16/6/7 97/4/7 13/4/7
f 17/16/8 80/15/8 20/15/8
f 71/43/12 94/44/12 70/38/12
f 74/39/12 91/9/12 75/37/12
f 70/38/12 96/10/12 74/39/12
f 71/43/12 91/9/12 89/12/12
f 72/45/12 89/12/12 85/35/12
f 87/36/12 100/15/12 76/34/12
f 85/35/12 91/9/12 87/36/12
f 72/45/12 100/15/12 98/6/12
f 86/46/12 97/47/12 69/32/12
f 88/31/12 99/16/12 96/10/12
f 69/32/12 99/16/12 73/33/12
f 86/46/12 96/10/12 94/44/12
f 90/41/12 97/47/12 98/6/12
f 92/42/12 99/16/12 95/40/12
f 93/48/12 99/16/12 97/47/12
f 90/41/12 100/15/12 92/42/12
f 106/49/12 101/12/12 105/50/12
f 107/51/12 104/11/12 108/52/12
f 108/52/12 102/11/12 106/49/12
f 105/50/12 103/12/12 107/51/12
f 7/13/12 105/50/12 3/53/12
f 9/54/12 108/52/12 10/14/12
f 10/14/12 106/49/12 7/13/12
f 3/53/12 107/51/12 9/54/12
f 109/53/12 112/14/12 110/13/12
f 3/53/8 110/13/8 7/13/8
f 9/54/2 109/53/2 3/53/2
f 10/14/7 111/54/7 9/54/7
f 102/1/2 104/1/2 12/2/2
f 8/3/2 13/3/2 14/1/2
f 8/4/7 38/4/7 37/5/7
f 6/5/4 2/7/4 4/6/4
f 2/7/5 1/8/5 25/8/5
f 2/7/6 49/7/6 51/8/6
f 19/9/7 79/9/7 78/10/7
f 4/6/7 16/6/7 13/4/7
f 102/11/8 14/11/8 15/12/8
f 101/12/6 15/12/6 16/6/6
f 104/1/9 58/1/9 60/2/9
f 101/12/27 1/8/27 11/8/27
f 5/2/5 12/2/5 11/8/5
f 7/13/6 110/13/6 112/14/6
f 14/11/8 94/11/8 89/12/8
f 67/9/6 83/9/6 84/15/6
f 20/15/2 80/15/2 79/9/2
f 15/12/6 89/12/6 98/6/6
f 17/16/8 20/15/8 68/15/8
f 65/16/2 81/16/2 82/10/2
f 68/15/7 84/15/7 81/16/7
f 18/10/6 78/10/6 77/16/6
f 22/17/10 30/17/10 32/18/10
f 4/6/28 2/7/28 26/7/28
f 101/12/8 27/12/8 25/8/8
f 4/6/12 28/6/12 27/12/12
f 22/17/6 26/7/6 25/8/6
f 23/20/6 27/12/6 28/6/6
f 21/19/6 25/8/6 27/12/6
f 24/18/6 28/6/6 26/7/6
f 29/19/6 31/20/6 32/18/6
f 24/18/13 32/18/13 31/20/13
f 23/20/14 31/20/14 29/19/14
f 21/19/15 29/19/15 30/17/15
f 35/21/16 36/22/16 44/22/16
f 102/1/29 5/2/29 40/2/29
f 6/23/5 37/23/5 40/2/5
f 102/1/12 39/1/12 38/3/12
f 33/24/2 37/23/2 38/3/2
f 34/25/2 38/3/2 39/1/2
f 36/22/2 40/2/2 37/23/2
f 35/21/2 39/1/2 40/2/2
f 43/21/2 44/22/2 41/24/2
f 35/21/17 43/21/17 42/25/17
f 33/24/18 41/24/18 44/22/18
f 33/24/19 34/25/19 42/25/19
f 47/26/7 55/26/7 56/27/7
f 5/2/2 52/2/2 50/23/2
f 6/5/7 50/5/7 49/7/7
f 1/8/8 51/8/8 52/2/8
f 46/28/5 45/29/5 49/7/5
f 45/29/5 47/26/5 51/8/5
f 48/27/5 46/28/5 50/23/5
f 47/26/5 48/27/5 52/2/5
f 56/27/5 55/26/5 53/29/5
f 45/29/2 53/29/2 55/26/2
f 48/27/6 56/27/6 54/28/6
f 46/28/8 54/28/8 53/29/8
f 58/1/2 62/1/2 64/2/2
f 103/12/20 57/12/20 58/11/20
f 12/2/21 60/2/21 59/8/21
f 11/8/22 59/8/22 57/12/22
f 64/30/8 62/11/8 61/12/8
f 57/12/12 61/12/12 62/11/12
f 60/2/5 64/2/5 63/8/5
f 59/8/6 63/8/6 61/12/6
f 13/3/2 97/3/2 94/1/2
f 20/15/8 19/9/8 67/9/8
f 19/9/8 18/10/8 66/10/8
f 18/10/8 17/16/8 65/16/8
f 100/15/23 80/15/23 77/16/23
f 88/31/12 86/46/12 69/32/12
f 76/34/12 72/45/12 85/35/12
f 75/37/12 71/43/12 70/38/12
f 95/40/12 93/48/12 90/41/12
f 91/9/24 79/9/24 80/15/24
f 96/10/25 78/10/25 79/9/25
f 99/16/26 77/16/26 78/10/26
f 83/9/12 82/10/12 81/16/12
f 66/10/8 82/10/8 83/9/8
f 16/6/7 98/6/7 97/4/7
f 17/16/8 77/16/8 80/15/8
f 71/43/12 89/12/12 94/44/12
f 74/39/12 96/10/12 91/9/12
f 70/38/12 94/44/12 96/10/12
f 71/43/12 75/37/12 91/9/12
f 72/45/12 98/6/12 89/12/12
f 87/36/12 91/9/12 100/15/12
f 85/35/12 89/12/12 91/9/12
f 72/45/12 76/34/12 100/15/12
f 86/46/12 94/44/12 97/47/12
f 88/31/12 73/33/12 99/16/12
f 69/32/12 97/47/12 99/16/12
f 86/46/12 88/31/12 96/10/12
f 90/41/12 93/48/12 97/47/12
f 92/42/12 100/15/12 99/16/12
f 93/48/12 95/40/12 99/16/12
f 90/41/12 98/6/12 100/15/12
f 106/49/12 102/11/12 101/12/12
f 107/51/12 103/12/12 104/11/12
f 108/52/12 104/11/12 102/11/12
f 105/50/12 101/12/12 103/12/12
f 7/13/12 106/49/12 105/50/12
f 9/54/12 107/51/12 108/52/12
f 10/14/12 108/52/12 106/49/12
f 3/53/12 105/50/12 107/51/12
f 109/53/12 111/54/12 112/14/12
f 3/53/8 109/53/8 110/13/8
f 9/54/2 111/54/2 109/53/2
f 10/14/7 112/14/7 111/54/7
